<svg id="_--_Homepage" data-name="-- Homepage" xmlns="http://www.w3.org/2000/svg" viewBox="0 0 1024 347.7"><defs><style>.cls-1{font-size:240.49px;fill:#fff;font-family:Kanit-Regular, Kanit;letter-spacing:-0.03em;}.cls-2{fill:#0d82ec;}</style></defs><text class="cls-1" transform="translate(438.41 263.28)">Prism</text><path class="cls-2" d="M389.12,256.23a7.5,7.5,0,0,0-.1-.94,5.33,5.33,0,0,0-.2-.81,7.19,7.19,0,0,0-.24-.79,7.77,7.77,0,0,0-.42-.87c-.09-.17-.14-.34-.24-.5l-38.28-62.7a8.58,8.58,0,0,1,7.32-13h23.7a8.36,8.36,0,0,0,7.8-5,8.63,8.63,0,0,0-7.86-12.14H162.44a8.57,8.57,0,0,1-7.33-13l66.63-110a8.57,8.57,0,0,1,14.69.05L296.1,136.4a8.57,8.57,0,1,0,14.71-8.79L237.09,4.17A8.54,8.54,0,0,0,229.15.05h-.1c-.28,0-.56,0-.83,0s-.54.08-.81.11a7.76,7.76,0,0,0-.82.13,7.75,7.75,0,0,0-.77.26c-.26.09-.53.16-.78.27s-.48.27-.71.41-.5.26-.73.42-.42.37-.63.56a6.64,6.64,0,0,0-.63.56,7.17,7.17,0,0,0-.52.68,6.8,6.8,0,0,0-.52.68L167.57,91.51a8.6,8.6,0,0,0-1,2.37,8,8,0,0,1-.94,2.12l-35.94,59.3a8.55,8.55,0,0,1-7.33,4.13H8.52a8.36,8.36,0,0,0-7.8,5,8.63,8.63,0,0,0,7.85,12.14H316.79a8.57,8.57,0,0,1,7.32,4.1l33.26,54.5a8.57,8.57,0,0,1-7.32,13H108.37a8.58,8.58,0,0,1-7.31-13.06l14.29-23.29a8.36,8.36,0,0,0-.2-9.27,8.62,8.62,0,0,0-14.45.36L70.43,252.31c-.1.16-.16.34-.25.5s-.29.56-.41.86-.17.54-.25.81-.15.52-.2.79a7.77,7.77,0,0,0-.1,1c0,.18-.06.36-.06.55s0,.11,0,.17c0,.32.06.64.1,1s0,.5.1.74a7.24,7.24,0,0,0,.25.79c.09.27.16.53.27.79a8.06,8.06,0,0,0,.39.71,7.38,7.38,0,0,0,.41.72c.16.22.35.42.53.64a8.11,8.11,0,0,0,.55.62,5.48,5.48,0,0,0,.58.48,8.34,8.34,0,0,0,.75.58l.14.11a9.08,9.08,0,0,0,1.12.57l.18.06a8.13,8.13,0,0,0,1.27.4l.38.08a8.81,8.81,0,0,0,1.53.15H380.61a8.81,8.81,0,0,0,1.53-.15l.38-.08a8.72,8.72,0,0,0,1.29-.4l.16-.06a8.85,8.85,0,0,0,1.1-.57l.14-.1a9.11,9.11,0,0,0,.77-.58c.19-.16.4-.31.58-.48a6.71,6.71,0,0,0,.55-.63,8.18,8.18,0,0,0,.53-.64c.15-.22.27-.47.41-.71s.28-.47.39-.72.18-.52.27-.78.18-.52.25-.79.07-.5.1-.75.09-.63.1-.95c0-.06,0-.12,0-.18S389.13,256.42,389.12,256.23Z"/></svg>