<svg id="Brand" xmlns="http://www.w3.org/2000/svg" viewBox="0 0 1024 698.22"><defs><style>.cls-1{fill:#0d82ec;}</style></defs><path class="cls-1" d="M1023.85,674.2a21,21,0,0,0-.25-2.49c-.13-.73-.34-1.43-.54-2.14a19.73,19.73,0,0,0-.64-2.07,21,21,0,0,0-1.1-2.29c-.22-.43-.37-.88-.62-1.3L920,498.92a22.56,22.56,0,0,1,19.26-34.31h62.35c8.82,0,17.18-5,20.51-13.17,6.67-16.34-5.17-31.94-20.66-31.94h-574a22.55,22.55,0,0,1-19.29-34.24L583.44,95.89a22.55,22.55,0,0,1,38.65.13l157,262.87a22.55,22.55,0,1,0,38.72-23.13L623.84,11A22.49,22.49,0,0,0,602.94.12h-.27a20.06,20.06,0,0,0-2.19-.1c-.71,0-1.4.19-2.11.29s-1.46.15-2.17.32-1.35.46-2,.69-1.4.42-2.07.72-1.24.72-1.86,1.08-1.3.68-1.91,1.11-1.1,1-1.66,1.45-1.15.93-1.66,1.48A21,21,0,0,0,583.64,9c-.45.59-.95,1.12-1.35,1.76L440.91,240.78a22.44,22.44,0,0,0-2.65,6.25,20.81,20.81,0,0,1-2.49,5.55l-94.54,156a22.57,22.57,0,0,1-19.3,10.87H22.41c-8.82,0-17.18,5-20.51,13.18C-4.77,449,7.07,464.61,22.56,464.61h811a22.57,22.57,0,0,1,19.25,10.81L940.31,618.8a22.55,22.55,0,0,1-19.25,34.31H285.13a22.55,22.55,0,0,1-19.22-34.35l37.59-61.28c4.62-7.54,4.72-17.3-.53-24.41-10.47-14.19-29.92-12.24-38,.95L185.31,663.87c-.26.43-.41.89-.64,1.34a21.18,21.18,0,0,0-1.09,2.25,20.72,20.72,0,0,0-.66,2.12,20.15,20.15,0,0,0-.53,2.1,21.47,21.47,0,0,0-.26,2.53c0,.49-.15.95-.15,1.45,0,.16.05.3.05.45a23.62,23.62,0,0,0,.25,2.52c.09.65.14,1.31.28,2s.42,1.39.65,2.09a20.85,20.85,0,0,0,.71,2.06,19.09,19.09,0,0,0,1,1.89c.36.64.67,1.29,1.08,1.88s.92,1.12,1.39,1.68.92,1.14,1.44,1.65,1,.84,1.53,1.26a22.87,22.87,0,0,0,2,1.52c.13.08.23.2.37.28a22.4,22.4,0,0,0,2.92,1.5c.15.07.32.11.48.17a21.14,21.14,0,0,0,3.34,1l1,.21a22.86,22.86,0,0,0,4,.41h796.95a22.84,22.84,0,0,0,4-.41l1-.2a23.42,23.42,0,0,0,3.4-1.06c.14,0,.28-.09.42-.15a22.09,22.09,0,0,0,2.9-1.49c.13-.08.24-.2.38-.29a21.05,21.05,0,0,0,2-1.52,18.62,18.62,0,0,0,1.53-1.26c.53-.51,1-1.08,1.45-1.64s1-1.09,1.39-1.68.72-1.24,1.08-1.87.74-1.24,1-1.89.48-1.38.71-2.07.49-1.38.65-2.09.19-1.31.28-2a23.07,23.07,0,0,0,.25-2.49c0-.16,0-.31,0-.48C1024,675.16,1023.89,674.7,1023.85,674.2Z"/></svg>